<svg width="13" height="20" viewBox="0 0 13 20" fill="none" xmlns="http://www.w3.org/2000/svg">
<path d="M5.00001 20V19C5.00001 18.4667 5.20001 18.0207 5.60001 17.662C6.00001 17.3033 6.46668 17.0827 7.00001 17V9.85C6.63335 9.71667 6.31268 9.525 6.03801 9.275C5.76335 9.025 5.53401 8.73333 5.35001 8.4L3.45001 8.9C2.85001 9.03333 2.27901 8.98333 1.73701 8.75C1.19501 8.51667 0.849346 8.11667 0.700012 7.55L5.05001 6.45C5.18335 5.76667 5.50001 5.2 6.00001 4.75C6.50001 4.3 7.10001 4.05 7.80001 4L8.40001 1.75C8.56668 1.16667 8.88768 0.704334 9.36301 0.363C9.83835 0.021667 10.3673 -0.0826663 10.95 0.0500004L9.70001 4.55C10.1167 4.81667 10.4377 5.16667 10.663 5.6C10.8883 6.03333 11.0007 6.5 11 7C11 7.21667 10.975 7.42933 10.925 7.638C10.875 7.84667 10.8167 8.05067 10.75 8.25L12.1 9.65C12.5167 10.0833 12.7627 10.5917 12.838 11.175C12.9133 11.7583 12.7507 12.25 12.35 12.65L9.35001 9.65C9.30001 9.7 9.24601 9.73767 9.18801 9.763C9.13001 9.78833 9.06735 9.81733 9.00001 9.85V17C9.53335 17.0833 10 17.3043 10.4 17.663C10.8 18.0217 11 18.4673 11 19V20H5.00001ZM8.00001 8.5C8.41668 8.5 8.77101 8.35433 9.06301 8.063C9.35501 7.77167 9.50068 7.41733 9.50001 7C9.49935 6.58267 9.35368 6.22867 9.06301 5.938C8.77235 5.64733 8.41801 5.50133 8.00001 5.5C7.58201 5.49867 7.22801 5.64467 6.93801 5.938C6.64801 6.23133 6.50201 6.58533 6.50001 7C6.49801 7.41467 6.64401 7.769 6.93801 8.063C7.23201 8.357 7.58601 8.50267 8.00001 8.5Z" fill="black"/>
</svg>
